<svg viewBox="0 0 335.7 55" xmlns="http://www.w3.org/2000/svg"><g fill="#04102D"><ellipse cx="18.8" cy="6.5" rx="18.8" ry="6.5"/><ellipse cx="13.2" cy="21.3" rx="13.2" ry="6.5"/><ellipse cx="6.4" cy="35.6" rx="6.4" ry="6.5"/><path d="M52.4 42.3V.4h26.1v6.5H59.9v11.2H78v6.5H59.9v17.7zM88.2.3c2.5 0 4.3 1.9 4.3 4.3s-1.8 4.3-4.3 4.3-4.3-1.8-4.3-4.3S85.8.3 88.2.3zm-3.7 42V13.7h7.2v28.7h-7.2zm22.7 0H100V13.7h7v4.9c1.3-3.3 5.1-5.6 9.5-5.6 6.9 0 10.7 5.1 10.7 12.2v17.2H120v-16c0-4.1-1.8-7.1-6.1-7.1s-6.7 2.9-6.7 7zm34.9 0h-7.2V13.7h7v4.9c1.3-3.3 5.1-5.6 9.5-5.6 6.9 0 10.7 5.1 10.7 12.2v17.2h-7.2v-16c0-4.1-1.8-7.1-6.1-7.1s-6.7 2.9-6.7 7zm33-11.9c.5 4.3 3.2 7.2 8.3 7.2s6.2-1.6 7.6-3.7h6.7c-2 5.1-7.5 9.1-14.3 9.1-9.8 0-15.5-6.5-15.5-15s6.3-15 15.1-15 15 6.3 15 15.1v2.4h-23zm0-4.7h16.2c-.5-4.4-3.4-7.5-8-7.5s-7.6 2.9-8.2 7.5zm51.8-7v-5.1h7.1v28.3c0 7.4-6.7 13-15.6 13s-13.2-3.3-15.4-9.8h7.2c1.4 2.8 4.1 4.3 8.2 4.3s8.4-2.7 8.4-7.5v-5.6c-1.7 2.9-5.3 5.3-10.1 5.3-8.5 0-14.2-6.4-14.2-14.3s5.7-14.4 14.2-14.4 8.8 2.5 10.2 5.7zm-.1 8.6c0-5.1-3.9-8.4-8.7-8.4s-8.4 3.6-8.4 8.4 3.3 8.3 8.4 8.3 8.7-3.3 8.7-8.3zm45.3-13.6v28.7h-7v-4.9c-1.7 2.9-5.5 5.6-10.5 5.6-8.5 0-14.5-6.8-14.5-15s6-15 14.5-15 8.9 2.6 10.3 5.6v-4.9h7.1zM256 37.1c4.8 0 8.8-3.5 8.8-9s-4-9.1-8.8-9.1-8.6 4.1-8.6 9.1 3.4 9 8.6 9zm31.2 5.2H280V13.7h7v4.9c1.3-3.3 5.1-5.6 9.5-5.6 6.9 0 10.7 5.1 10.7 12.2v17.2H300v-16c0-4.1-1.8-7.1-6.1-7.1s-6.7 2.9-6.7 7zm31.9-8.5c.4 2.6 2.1 4.2 5.3 4.2s4.7-1.4 4.7-3.7-1-2.8-3.1-3.4l-4.3-1.1c-4.9-1.3-7.7-3.7-7.7-8.3s4.5-8.5 10.2-8.5 9.6 3.6 10.2 8.6h-6.1c-.1-1.8-1.3-3.5-3.8-3.5s-3.7 1.2-3.7 3.1 1 2.5 3.1 3l5.1 1.4c4.6 1.3 6.8 3.9 6.8 8s-5.4 9.4-11.3 9.4-10.7-2.8-11.5-9.2z"/></g></svg>